<?xml version="1.0" encoding="UTF-8" standalone="no"?>
<!-- Created with Inkscape (http://www.inkscape.org/) -->

<svg
   width="256"
   height="135.05319"
   id="svg2733"
   sodipodi:version="0.32"
   inkscape:version="1.2.2 (b0a8486541, 2022-12-01)"
   version="1.0"
   sodipodi:docname="blu-ray-logo.svg"
   xmlns:inkscape="http://www.inkscape.org/namespaces/inkscape"
   xmlns:sodipodi="http://sodipodi.sourceforge.net/DTD/sodipodi-0.dtd"
   xmlns="http://www.w3.org/2000/svg"
   xmlns:svg="http://www.w3.org/2000/svg"
   xmlns:rdf="http://www.w3.org/1999/02/22-rdf-syntax-ns#"
   xmlns:cc="http://creativecommons.org/ns#"
   xmlns:dc="http://purl.org/dc/elements/1.1/">
  <defs
     id="defs2735" />
  <sodipodi:namedview
     id="base"
     pagecolor="#808080"
     bordercolor="#666666"
     borderopacity="1.0"
     inkscape:pageopacity="0"
     inkscape:pageshadow="2"
     inkscape:zoom="3.959798"
     inkscape:cx="124.88011"
     inkscape:cy="72.478445"
     inkscape:document-units="px"
     inkscape:current-layer="layer1"
     width="235.67mm"
     height="125.27mm"
     units="mm"
     inkscape:window-width="1920"
     inkscape:window-height="1011"
     inkscape:window-x="0"
     inkscape:window-y="32"
     inkscape:showpageshadow="0"
     inkscape:pagecheckerboard="true"
     inkscape:deskcolor="#666666"
     showgrid="false"
     showborder="true"
     borderlayer="true"
     shape-rendering="auto"
     inkscape:window-maximized="1" />
  <metadata
     id="metadata2738">
    <rdf:RDF>
      <cc:Work
         rdf:about="">
        <dc:format>image/svg+xml</dc:format>
        <dc:type
           rdf:resource="http://purl.org/dc/dcmitype/StillImage" />
      </cc:Work>
    </rdf:RDF>
  </metadata>
  <g
     inkscape:label="Ebene 1"
     inkscape:groupmode="layer"
     id="layer1"
     transform="translate(-112.41428,-160.35832)">
    <g
       transform="matrix(0.17041995,0,0,0.17041995,118.47609,163.40641)"
       id="g2714"
       style="fill:#ffffff">
      <path
         id="path106"
         class="ps02"
         d="m 244.57223,587.53295 c -3.38095,0 -13.67323,3.29129 -23.6106,17.66505 -9.9934,14.51933 -53.51609,86.46439 -61.86572,99.83501 -8.39266,13.29783 -5.51039,19.75519 3.32491,19.75519 8.77925,0 9.9934,0 19.51983,0 9.50774,0 17.18492,-10.94412 21.21964,-17.56598 4.16548,-6.67597 56.16856,-90.24134 63.6029,-102.55291 7.47171,-12.31337 2.67114,-17.13636 -2.40962,-17.13636 -5.02472,0 -19.78134,0 -19.78134,0"
         style="fill:#ffffff;fill-opacity:1;fill-rule:nonzero;stroke:none" />
      <path
         id="path108"
         class="ps02"
         d="m 121.18821,623.82303 c -8.97545,18.60455 -27.034569,19.06225 -36.155589,19.06225 -9.19394,0 -11.23564,0 -14.6296,0 -3.35673,0 -7.00473,0 -2.80936,-6.38457 4.08702,-6.49484 9.92423,-16.52741 12.73359,-20.97874 2.80756,-4.34107 5.36288,-5.43567 10.43436,-5.43567 0,0 13.095969,0 18.606359,0 5.47109,0 18.56899,-0.2914 11.82024,13.73673 z m -24.772449,55.69036 c -8.90253,18.62516 -25.82969,19.06225 -34.95071,19.06225 -9.19406,0 -22.25448,0 -25.64663,0 -3.35853,0 -6.9693,0 -2.84672,-6.47616 4.12245,-6.43868 10.36133,-16.50873 13.17069,-20.79556 2.88215,-4.46808 5.36288,-5.45254 10.39688,-5.45254 0,0 22.5478,0 28.0189,0 5.47302,0 18.643709,-0.49313 11.85759,13.66201 m -27.98154,44.94798 c 32.615929,-1.42336 55.087089,-1.89781 80.772879,-49.74481 11.34579,-21.34293 -20.32123,-22.49164 -20.32123,-22.49164 -4.15981,0 28.75305,1.60448 46.62911,-35.60835 16.08285,-33.62268 -12.94473,-30.9889 -18.32436,-31.54928 -24.25496,-2.48434 -69.858519,-2.40962 -104.626299,0.20547 -7.58933,0 -15.54296,9.65538 -19.66553,15.65696 -4.04967,5.98303 -57.05961,92.30173 -65.04868,105.25212 -7.98918,12.75047 -0.65751,17.73217 8.42809,18.27953 24.18772004,1.42143 55.52598,1.5317 92.15602,0"
         style="fill:#ffffff;fill-opacity:1;fill-rule:nonzero;stroke:none" />
      <path
         id="path111"
         class="ps02"
         d="m 1143.157,638.79826 -42.4206,68.47819 c -8.5738,13.60778 -0.8406,17.56779 3.3436,17.56779 4.2775,0 11.2823,0 18.6045,0 7.341,0 13.0008,-0.56593 23.5359,-17.56779 l 42.5701,-68.73416 c 12.1228,-18.98934 -2.914,-17.693 -11.4878,-17.65745 -16.0081,0.1457 -20.6779,-0.0356 -34.1457,17.91342"
         style="fill:#ffffff;fill-opacity:1;fill-rule:nonzero;stroke:none" />
      <path
         id="path119"
         class="ps02"
         d="m 1319.041,643.57822 h -51.1065 c -5.2675,0 -12.3657,4.45133 -15.8026,10.06813 -3.4931,5.58329 -1.924,10.07005 3.3249,10.07005 0,0 21.0515,0 36.9849,0 16.0642,0 21.0889,10.14284 4.5017,34.47626 -3.96,5.6374 -10.946,13.51632 -16.0642,16.74602 0,0 -14.4764,11.93039 -60.9878,11.93039 -41.8228,0 -43.0557,-4.76129 -43.0557,-4.76129 -4.0534,-3.50242 -5.8092,-8.88386 -3.8292,-12.05752 1.9613,-3.17548 7.8826,-5.7831 13.1315,-5.7831 h 52.7503 c 5.2862,0 12.3656,-4.5428 15.8773,-10.06994 3.381,-5.47121 1.9987,-11.05438 -3.2128,-11.05438 0,0 -20.6966,0 -39.3759,0 -18.6419,0 -16.5125,-13.11478 -2.2602,-33.49012 3.9413,-5.60004 10.9834,-13.29771 16.1389,-16.47318 0,0 15.8213,-12.18455 60.7823,-12.18455 17.6146,0 48.4727,-1.02169 46.4367,13.33519 -1.0647,7.42314 -10.7593,9.24804 -14.2336,9.24804"
         style="fill:#ffffff;fill-opacity:1;fill-rule:nonzero;stroke:none" />
      <path
         id="path121"
         class="ps02"
         d="m 1452.5604,644.56268 h -40.8516 c -5.2115,0 -12.5524,4.86962 -16.307,10.87133 l -23.4985,37.94313 c -3.7172,5.96435 -2.447,10.89002 2.8206,10.89002 0,0 41.1504,0 48.4727,0 7.2662,0 11.3943,0.56604 11.0581,2.73657 -1.0647,7.38759 -10.834,19.86534 -69.0199,19.86534 -51.9284,0 -48.2672,-7.38952 -47.1838,-15.28711 1.1768,-7.98906 26.2443,-48.5773 33.9402,-60.89067 7.6585,-12.40304 19.1089,-29.66075 70.0099,-29.66075 47.4266,0 44.8676,10.6173 44.438,13.46209 -0.411,2.79261 -3.3997,10.07005 -13.8787,10.07005"
         style="fill:#ffffff;fill-opacity:1;fill-rule:nonzero;stroke:none" />
      <path
         id="path123"
         class="ps02"
         d="m 1213.1669,581.98521 c 3.9787,0 8.7606,3.58642 5.0434,9.56752 -3.7545,6.00171 -4.9313,8.08065 -7.453,12.18636 -2.5404,4.08521 -7.5464,6.51159 -14.8874,6.51159 -7.0047,0 -23.704,0 -26.8421,0 -4.6698,0 -4.6698,-5.05268 -2.4843,-9.32096 2.1854,-4.26815 3.8292,-5.83721 5.5851,-8.79227 1.6811,-2.84672 5.062,-9.85337 14.9994,-9.85337 l 26.0389,-0.29887"
         style="fill:#ffffff;fill-opacity:1;fill-rule:nonzero;stroke:none" />
      <path
         id="path125"
         class="ps02"
         d="m 440.72316,656.16431 c -9.8626,0 -13.5051,6.89458 -15.2609,9.77673 -1.7559,2.91963 -3.3623,4.45133 -5.5478,8.71948 -2.2228,4.30563 -1.6437,9.35831 1.457,9.35831 3.1008,0 20.8834,0 27.8508,0 7.4343,0 12.3657,-2.42637 14.9061,-6.58438 2.5217,-4.04966 3.6984,-6.11185 7.453,-12.13031 3.6798,-6.02039 -1.0274,-9.46858 -5.0061,-9.46858 -4.016,0 -26.4124,0.0542 -26.4124,0.0542"
         style="fill:#ffffff;fill-opacity:1;fill-rule:nonzero;stroke:none" />
      <path
         id="path127"
         class="ps02"
         d="m 1060.165,633.67267 c 0,0 -29.1583,46.84386 -31.1943,49.69058 -1.98,2.89902 -11.1702,15.97824 -24.9555,15.97824 -8.57384,0 -20.58464,0 -28.52334,0 -4.8192,0 -7.8079,-1.14883 -3.9787,-6.84034 l 46.17524,-73.93254 c 1.8679,-2.18921 5.1928,-4.65113 8.9474,-4.65113 8.1254,0 21.9668,0 27.9815,0 8.7606,0 11.3757,10.45291 5.5477,19.75519 z m 22.4338,49.25156 c 17.4091,-27.49022 6.7806,-10.45292 30.3538,-48.8687 23.648,-38.45313 -13.2809,-46.29842 -49.6121,-46.29842 -55.1412,0 -72.64364,2.26392 -72.64364,2.26392 -5.2863,0.54737 -12.702,5.94567 -16.3444,11.96594 l -67.3948,108.57329 c -3.6425,5.96423 -2.503,11.38315 2.6711,12.07609 0,0 16.1576,2.15185 71.2614,2.15185 77.08944,0 84.33694,-14.33628 101.70864,-41.86397"
         style="fill:#ffffff;fill-opacity:1;fill-rule:nonzero;stroke:none" />
      <path
         id="path129"
         class="ps02"
         d="m 664.07116,692.55526 -0.5604,0.82188 c -4.2215,6.84035 -12.6458,12.4404 -18.7166,12.4404 l -13.337,0.74717 -11.824,-0.74717 c -6.0334,0 -7.5651,-5.60005 -3.2875,-12.4404 l 0.467,-0.82188 c 4.3522,-6.94869 12.7766,-12.53186 18.7913,-12.53186 h 25.1797 c 6.0894,0 7.509,5.58317 3.2875,12.53186 z m -25.9455,-30.97396 c -16.2696,0 -21.4064,0.87612 -36.2004,1.29634 -5.2862,0 -12.5711,4.88842 -16.307,10.85265 l -13.8227,23.25762 c -16.8113,26.74304 19.9308,28.73052 48.1925,28.73052 45.7269,0 67.6377,-12.49451 67.6377,-12.49451 5.2302,-2.99241 12.4404,-10.21575 16.1762,-16.23601 l 29.4385,-47.49957 c 3.6798,-5.91012 4.4083,-15.0685 1.6812,-20.32111 0,0 -4.3523,-8.31794 -50.0978,-8.31794 -45.2412,0 -63.0052,7.18598 -63.0052,7.18598 -5.3609,2.08087 -11.2823,6.45736 -13.2436,9.59547 -2.036,3.24646 0.6911,5.729 6.0147,5.729 h 67.2454 c 5.2862,0 7.2289,4.37649 3.9413,9.13789 -5.473,8.11801 -15.1862,9.08367 -15.1862,9.08367 h -32.4646"
         style="fill:#ffffff;fill-opacity:1;fill-rule:nonzero;stroke:none" />
      <path
         id="path131"
         class="ps02"
         d="m 549.24976,653.37363 c 3.7171,-5.96423 11.2822,-10.89001 16.6058,-10.89001 h 20.7527 c 2.8019,0 12.5898,-0.32876 13.5051,-7.22321 1.4943,-10.56319 -21.3878,-13.35387 -28.71,-13.35387 -30.8021,0 -47.9871,2.00615 -65.7137,27.74618 -13.1315,20.95814 -26.1136,42.37397 -35.1357,57.62373 -8.1628,13.95522 -0.8405,17.56779 3.437,17.56779 4.2215,0 11.2636,0 18.5672,0 7.3409,0 12.9447,-0.56593 23.4985,-17.56779 l 33.1931,-53.90282"
         style="fill:#ffffff;fill-opacity:1;fill-rule:nonzero;stroke:none" />
      <path
         id="path133"
         class="ps02"
         d="m 414.29206,639.67426 -29.5133,48.28409 c -3.5303,5.96616 -0.0934,8.64657 3.3997,8.64657 3.4743,-0.0541 7.5837,-0.0541 9.6385,-0.0541 4.016,0 8.7605,3.55653 4.9873,9.63103 -3.6798,5.94748 -4.7072,8.37386 -7.2475,12.47775 -2.5964,4.10378 -7.5278,6.51159 -14.9621,6.51159 -5.8093,0 -9.1155,0 -12.814,0 -8.0881,0 -3.7172,-13.04186 -3.7172,-13.04186 -11.8987,13.69937 -41.18775,13.75348 -70.36477,13.75348 -28.00021,0 -65.24667,0.16438 -48.06175,-28.62037 l 35.54665,-57.89825 c 6.70585,-10.34265 10.92737,-13.35375 16.1202,-16.50873 0,0 1.99868,-1.11329 17.3904,-1.11329 9.86265,0 23.79738,-0.71162 12.04813,17.62202 l -32.53929,53.08274 c -3.71717,6.00171 -2.44698,10.8359 2.80189,10.8359 h 23.83475 c 5.24887,0 12.57114,-4.83419 16.307,-10.8359 0,0 17.18489,-28.0189 32.12829,-52.77266 3.6985,-6.12861 13.5052,-18.64372 23.4612,-18.64372 0,0 9.4144,0 16.2323,0 6.9673,0 15.2236,2.18921 5.3236,18.64372"
         style="fill:#ffffff;fill-opacity:1;fill-rule:nonzero;stroke:none" />
      <path
         id="path135"
         class="ps02"
         d="m 707.79936,751.7854 52.8997,0.0728 11.8239,0.14763 c 5.2676,0 12.5899,-4.89024 16.307,-10.9087 l 10.1055,-16.30892 c -6.5564,0.65751 -13.7106,1.04049 -21.7053,1.04049 -27.9068,0 -65.228,0.16438 -48.0057,-28.73064 l 34.7621,-56.14794 c 3.7172,-5.96435 10.9834,-13.35194 16.1949,-16.41727 0,0 1.98,-1.20294 17.3344,-1.20294 9.8253,0 25.0676,-2.90083 12.0481,17.62021 l -31.8481,51.38666 c -3.6238,6.00159 -2.4097,10.83578 2.9139,10.83578 h 21.8548 c 5.2862,0 12.6272,-4.83419 16.307,-10.83578 l 31.8481,-51.38666 c 3.7172,-5.96435 10.9834,-13.18756 16.1949,-16.08851 0,0 2.5591,-1.5317 17.764,-1.5317 8.3683,0 24.9182,-3.17355 11.4878,17.62021 l -27.197,43.81782 c -0.7099,1.49434 -1.5691,3.08208 -2.7833,4.99664 l -34.7994,56.20218 c -3.6612,5.89144 -10.9461,13.15213 -16.1949,16.14455 0,0 -22.191,12.47582 -67.7871,12.47582 -1.9053,0 -3.8666,-0.10834 -5.7719,-0.10834 -41.8042,-0.21849 -40.6087,-3.44819 -43.0183,-4.85287 -2.3723,-1.44011 -5.3236,-4.99857 -4.6325,-9.92243 0.7285,-4.92566 6.6125,-7.91808 13.8974,-7.91808"
         style="fill:#ffffff;fill-opacity:1;fill-rule:nonzero;stroke:none" />
      <path
         id="path137"
         class="ps02"
         d="m 356.72256,235.55955 c 0,-12.01076 72.3448,-28.8221 190.1923,-28.8221 117.8848,0 190.1549,16.81134 190.1549,28.8221 0,12.02945 -72.2701,28.72871 -190.1549,28.72871 -117.8475,0 -190.1923,-16.69926 -190.1923,-28.72871 z M 281.53849,28.032911 c -0.80321,0 -1.5317,0.448303 -1.99868,1.064719 -55.68289,78.39688 -89.36161,131.55807 -124.19844,196.00153 l -3.47434,7.1168 -1.01796,2.29755 c -2.95518,6.23888 -2.26393,13.18757 1.9706,19.76267 20.62191,32.24041 136.20921,69.89781 394.13249,69.89781 192.3404,0 396.7476,-31.04494 396.7476,-88.61444 0,-55.60817 -201.7361,-88.76387 -396.7476,-88.76387 -64.7236,0 -128.8122,9.13416 -147.3234,12.02945 17.6706,-27.19701 90.856,-125.748817 91.6218,-126.794856 0.3176,-0.429623 0.5417,-0.933963 0.5417,-1.475662 0,-0.392264 -0.1867,-0.76585 -0.3362,-1.158114 -0.4296,-0.821888 -1.3075,-1.363587 -2.1855,-1.363587 H 281.53849"
         style="fill:#ffffff;fill-opacity:1;fill-rule:nonzero;stroke:none" />
      <path
         id="path145"
         class="ps02"
         d="m 356.72256,235.55955 c 0,-12.01076 72.3448,-28.8221 190.1923,-28.8221 117.8848,0 190.1549,16.81134 190.1549,28.8221 0,12.02945 -72.2701,28.72871 -190.1549,28.72871 -117.8475,0 -190.1923,-16.69926 -190.1923,-28.72871 z M 281.53849,28.032911 c -0.80321,0 -1.5317,0.448303 -1.99868,1.064719 -55.68289,78.39688 -89.36161,131.55807 -124.19844,196.00153 l -3.47434,7.1168 -1.01796,2.29755 c -2.95518,6.23888 -2.26393,13.18757 1.9706,19.76267 20.62191,32.24041 136.20921,69.89781 394.13249,69.89781 192.3404,0 396.7476,-31.04494 396.7476,-88.61444 0,-55.60817 -201.7361,-88.76387 -396.7476,-88.76387 -64.7236,0 -128.8122,9.13416 -147.3234,12.02945 17.6706,-27.19701 90.856,-125.748817 91.6218,-126.794856 0.3176,-0.429623 0.5417,-0.933963 0.5417,-1.475662 0,-0.392264 -0.1867,-0.76585 -0.3362,-1.158114 -0.4296,-0.821888 -1.3075,-1.363587 -2.1855,-1.363587 H 281.53849"
         style="fill:#ffffff;fill-opacity:1;fill-rule:nonzero;stroke:none" />
      <path
         id="path147"
         class="ps02"
         d="m 427.47956,525.10685 c 0,0 959.23644,38.94627 979.74624,-296.29051 16.5498,-271.876711 -664.68304,-246.043289 -665.29944,-246.043289 -0.6725,0 -5.361,0.50434 -5.361,4.33359 0,3.3249093 2.4657,4.3709483 4.8753,4.3709483 188.9782,0 496.30814,75.0159297 486.27744,237.5442207 -8.0882,132.45467 -247.85524,287.43654 -799.95834,287.43654 -3.2502,0 -5.473,2.24151 -5.473,4.25887 0,2.0734 1.3262,3.94133 5.1928,4.38963"
         style="fill:#ffffff;fill-opacity:1;fill-rule:nonzero;stroke:none" />
      <path
         id="path149"
         class="ps02"
         d="m 1279.9266,494.73436 h -29.3264 v -6.68717 h 68.4034 v 6.68717 h -29.2891 v 53.12383 h -9.7879 v -53.12383"
         style="fill:#ffffff;fill-opacity:1;fill-rule:nonzero;stroke:none" />
      <path
         id="path151"
         class="ps02"
         d="m 1332.7889,488.04719 h 13.4678 l 23.1996,50.3593 23.3491,-50.3593 h 13.4304 v 59.811 h -9.2649 v -49.68684 h -0.2242 l -23.0875,49.68684 h -8.3497 l -22.9942,-49.68684 h -0.1867 v 49.68684 h -9.3397 v -59.811"
         style="fill:#ffffff;fill-opacity:1;fill-rule:nonzero;stroke:none" />
    </g>
  </g>
</svg>
