<?xml version="1.0" encoding="UTF-8" standalone="no"?>
<svg
   width="256"
   height="114"
   version="1.1"
   id="svg8"
   sodipodi:docname="dvd-logo.svg"
   inkscape:version="1.2.2 (b0a8486541, 2022-12-01)"
   xmlns:inkscape="http://www.inkscape.org/namespaces/inkscape"
   xmlns:sodipodi="http://sodipodi.sourceforge.net/DTD/sodipodi-0.dtd"
   xmlns="http://www.w3.org/2000/svg"
   xmlns:svg="http://www.w3.org/2000/svg">
  <defs
     id="defs12" />
  <sodipodi:namedview
     id="namedview10"
     pagecolor="#505050"
     bordercolor="#ffffff"
     borderopacity="1"
     inkscape:showpageshadow="0"
     inkscape:pageopacity="0"
     inkscape:pagecheckerboard="1"
     inkscape:deskcolor="#505050"
     showgrid="false"
     inkscape:zoom="3.1466667"
     inkscape:cx="117.74364"
     inkscape:cy="50.529661"
     inkscape:window-width="1920"
     inkscape:window-height="1011"
     inkscape:window-x="0"
     inkscape:window-y="32"
     inkscape:window-maximized="1"
     inkscape:current-layer="svg8" />
  <g
     id="g6"
     transform="matrix(0.24188801,0,0,0.24188801,0.00169134,0.66038529)">
    <path
       d="m 91.053,0 -13.719,57.707 102.28,0.03906 h 24 c 65.747,0 105.91,26.44 94.746,73.4 -12.147,51.133 -69.613,73.4 -130.67,73.4 H 144.743 L 174.53,79.096063 H 72.26 L 28.739,262.29606 h 145.05 c 109.07,0 212.76,-57.573 231.01,-131.15 3.3467,-13.507 2.8806,-47.252997 -5.3594,-67.358997 -0.21299,-0.787 -0.42594,-1.4 -1.1855,-3 -0.293,-0.653 -0.56012,-3.6412 1.1465,-4.2812 0.947,-0.36 2.7069,1.4944 2.9336,2.041 0.853,2.24 1.5059,3.9062 1.5059,3.9062 l 92.293,260.599997 234.97,-265.209997 99.535,-0.08984 h 24 c 65.76,0 106.25,26.44 95.092,73.399997 -12.147,51.133 -69.947,73.4 -131,73.4 h -22.959 l 29.799,-125.469997 h -102.27 l -43.533,183.209997 h 145.07 c 109.05,0 213.48,-57.4 231,-131.15 17.52,-73.749997 -59.107,-131.149997 -168.69,-131.149997 h -216.4 c 0,0 -57.319,67.88 -67.959,80.693 -57.12,68.786997 -67.241,87.225997 -68.961,91.985997 0.24,-4.8 -1.8138,-23.412 -26.174,-92.958997 -6.48,-18.52 -27.359,-79.721 -27.359,-79.721 h -389.25 z m 408.77,324.16 c -276.04,0 -499.83,31.72 -499.83,70.84 0,39.12 223.79,70.84 499.83,70.84 276.04,0 499.83,-31.72 499.83,-70.84 0,-39.12 -223.79,-70.84 -499.83,-70.84 z m -18.094,48.627 c 63.04,0 114.13,10.573 114.13,23.613 0,13.04 -51.095,23.613 -114.13,23.613 -63.027,0 -114.13,-10.573 -114.13,-23.613 0,-13.04 51.106,-23.613 114.13,-23.613 z"
       fill="#ffffff"
       id="path2" />
    <path
       d="m 963.6,445.05 -0.73242,5.1738 h 13.08 l -5.1074,36.32 h 5.7207 l 5.1055,-36.32 h 11.68 l 0.72071,-5.1738 h -30.467 z m 41.215,0 -13.693,41.494 h 5.4785 l 10.215,-31.76 h 0.1328 l 7.1718,31.76 16.668,-31.453 h 0.1191 v 31.453 h 5.4805 V 445.05 h -5.4805 l -14.906,28.107 -6.4395,-28.107 h -4.746 z"
       display="none"
       id="path4" />
  </g>
</svg>
